<svg width="42" height="42" viewBox="0 0 42 42" fill="none" xmlns="http://www.w3.org/2000/svg">
<path fill-rule="evenodd" clip-rule="evenodd" d="M20.8001 41.6C26.3166 41.6 31.6071 39.4086 35.5079 35.5078C39.4086 31.6071 41.6001 26.3165 41.6001 20.8C41.6001 15.2835 39.4086 9.99294 35.5079 6.09218C31.6071 2.19142 26.3166 0 20.8001 0C15.2836 0 9.99299 2.19142 6.09224 6.09218C2.19148 9.99294 5.72205e-05 15.2835 5.72205e-05 20.8C5.72205e-05 26.3165 2.19148 31.6071 6.09224 35.5078C9.99299 39.4086 15.2836 41.6 20.8001 41.6Z" fill="white"/>
<path d="M17.523 13.8581C18.0072 13.4741 18.5832 13.1946 19.1998 13.0176V18.9802C18.5912 18.8136 18.0214 18.5287 17.523 18.1418C16.6824 17.4741 16.3582 16.689 16.3582 16C16.3582 15.3109 16.6824 14.5258 17.523 13.8581ZM22.3998 28.6122V22.5877C23.14 22.769 23.8163 23.0741 24.3646 23.4858C25.2755 24.1685 25.5998 24.9493 25.5998 25.6C25.5998 26.2506 25.2755 27.0314 24.3646 27.7141C23.7765 28.1419 23.1083 28.4466 22.3998 28.6101V28.6122Z" fill="#593EFF"/>
<path fill-rule="evenodd" clip-rule="evenodd" d="M20.8 0C9.312 0 0 9.312 0 20.8C0 32.288 9.312 41.6 20.8 41.6C32.288 41.6 41.6 32.288 41.6 20.8C41.6 9.312 32.288 0 20.8 0ZM22.4 8C22.4 7.57565 22.2314 7.16869 21.9314 6.86863C21.6313 6.56857 21.2243 6.4 20.8 6.4C20.3757 6.4 19.9687 6.56857 19.6686 6.86863C19.3686 7.16869 19.2 7.57565 19.2 8V9.7408C17.8621 9.96593 16.6012 10.5201 15.5307 11.3536C14.0117 12.5611 13.1584 14.2336 13.1584 16C13.1584 17.7685 14.0117 19.4389 15.5328 20.6464C16.6037 21.4997 17.8837 22.0267 19.2 22.2592V28.6123C18.4913 28.448 17.8231 28.1426 17.2352 27.7141L15.36 26.3061C15.1919 26.1801 15.0006 26.0883 14.7971 26.0362C14.5935 25.984 14.3817 25.9725 14.1737 26.0022C13.7536 26.0622 13.3746 26.2867 13.12 26.6261C12.8654 26.9656 12.7561 27.3923 12.8161 27.8124C12.8761 28.2325 13.1005 28.6115 13.44 28.8661L15.3152 30.2741C16.4523 31.1275 17.8091 31.6501 19.2 31.8741V33.6C19.2 34.0243 19.3686 34.4313 19.6686 34.7314C19.9687 35.0314 20.3757 35.2 20.8 35.2C21.2243 35.2 21.6313 35.0314 21.9314 34.7314C22.2314 34.4313 22.4 34.0243 22.4 33.6V31.872C23.805 31.6609 25.1379 31.1126 26.2848 30.2741C27.8741 29.0816 28.8 27.4069 28.8 25.6C28.8 23.7931 27.8741 22.1184 26.2848 20.9259C25.1382 20.0865 23.8052 19.5375 22.4 19.3259V13.0219C23.0187 13.1968 23.5925 13.4763 24.0768 13.8603L24.9621 14.5643C25.2945 14.8282 25.7182 14.9493 26.1399 14.9009C26.5615 14.8525 26.9467 14.6385 27.2107 14.3061C27.4746 13.9737 27.5957 13.5501 27.5473 13.1284C27.4989 12.7067 27.2849 12.3215 26.9525 12.0576L26.0672 11.3536C24.9971 10.5212 23.7369 9.96777 22.4 9.74293V8V8Z" fill="#593EFF"/>
</svg>
